<svg xmlns="http://www.w3.org/2000/svg" xmlns:xlink="http://www.w3.org/1999/xlink" width="1312.709" height="429.854" viewBox="0 0 1312.709 429.854">
  <defs>
    <linearGradient id="linear-gradient" x1="0.384" y1="0.46" x2="0.966" y2="0.696" gradientUnits="objectBoundingBox">
      <stop offset="0.117" stop-color="#fff"/>
      <stop offset="1" stop-color="#1d1d1c"/>
    </linearGradient>
  </defs>
  <g id="Group_266" data-name="Group 266" transform="translate(-27.691 -315.046)">
    <g id="Group_11" data-name="Group 11" transform="translate(94.736 648.359)">
      <g id="Group_8" data-name="Group 8" transform="translate(50.997)">
        <path id="Path_8" data-name="Path 8" d="M248.393,583.685a2.287,2.287,0,0,1-2.293-2.293,2.249,2.249,0,0,1,2.293-2.293,2.287,2.287,0,0,1,2.293,2.293A2.249,2.249,0,0,1,248.393,583.685Z" transform="translate(-246.1 -579.1)" fill="#020203"/>
        <path id="Path_9" data-name="Path 9" d="M248.393,611.185a2.293,2.293,0,1,1,2.293-2.293A2.249,2.249,0,0,1,248.393,611.185Z" transform="translate(-246.1 -589.56)" fill="#020203"/>
        <path id="Path_10" data-name="Path 10" d="M248.393,638.685a2.293,2.293,0,1,1,2.293-2.293A2.249,2.249,0,0,1,248.393,638.685Z" transform="translate(-246.1 -600.02)" fill="#020203"/>
        <path id="Path_11" data-name="Path 11" d="M248.393,666.285a2.293,2.293,0,1,1,2.293-2.293A2.287,2.287,0,0,1,248.393,666.285Z" transform="translate(-246.1 -610.517)" fill="#020203"/>
        <path id="Path_12" data-name="Path 12" d="M248.393,693.785a2.293,2.293,0,1,1,2.293-2.293A2.287,2.287,0,0,1,248.393,693.785Z" transform="translate(-246.1 -620.977)" fill="#020203"/>
        <path id="Path_13" data-name="Path 13" d="M248.393,721.285a2.287,2.287,0,0,1-2.293-2.293,2.249,2.249,0,0,1,2.293-2.293,2.287,2.287,0,0,1,2.293,2.293A2.249,2.249,0,0,1,248.393,721.285Z" transform="translate(-246.1 -631.437)" fill="#020203"/>
      </g>
      <g id="Group_9" data-name="Group 9" transform="translate(25.529)">
        <path id="Path_14" data-name="Path 14" d="M207.293,583.685A2.287,2.287,0,0,1,205,581.393a2.249,2.249,0,0,1,2.293-2.293,2.293,2.293,0,0,1,0,4.585Z" transform="translate(-205 -579.1)" fill="#020203"/>
        <path id="Path_15" data-name="Path 15" d="M207.293,611.185a2.293,2.293,0,1,1,2.293-2.293A2.327,2.327,0,0,1,207.293,611.185Z" transform="translate(-205 -589.56)" fill="#020203"/>
        <path id="Path_16" data-name="Path 16" d="M207.293,638.685a2.293,2.293,0,1,1,2.293-2.293A2.327,2.327,0,0,1,207.293,638.685Z" transform="translate(-205 -600.02)" fill="#020203"/>
        <path id="Path_17" data-name="Path 17" d="M207.293,666.285a2.293,2.293,0,1,1,2.293-2.293A2.371,2.371,0,0,1,207.293,666.285Z" transform="translate(-205 -610.517)" fill="#020203"/>
        <path id="Path_18" data-name="Path 18" d="M207.293,693.785a2.293,2.293,0,1,1,2.293-2.293A2.371,2.371,0,0,1,207.293,693.785Z" transform="translate(-205 -620.977)" fill="#020203"/>
        <path id="Path_19" data-name="Path 19" d="M207.293,721.285A2.287,2.287,0,0,1,205,718.993a2.249,2.249,0,0,1,2.293-2.293,2.293,2.293,0,1,1,0,4.585Z" transform="translate(-205 -631.437)" fill="#020203"/>
      </g>
      <g id="Group_10" data-name="Group 10" transform="translate(0 0.062)">
        <ellipse id="Ellipse_4" data-name="Ellipse 4" cx="2.293" cy="2.293" rx="2.293" ry="2.293" fill="#020203"/>
        <ellipse id="Ellipse_5" data-name="Ellipse 5" cx="2.293" cy="2.293" rx="2.293" ry="2.293" transform="translate(0 17.04)" fill="#020203"/>
        <ellipse id="Ellipse_6" data-name="Ellipse 6" cx="2.293" cy="2.293" rx="2.293" ry="2.293" transform="translate(0 34.08)" fill="#020203"/>
        <ellipse id="Ellipse_7" data-name="Ellipse 7" cx="2.293" cy="2.293" rx="2.293" ry="2.293" transform="translate(0 51.121)" fill="#020203"/>
        <ellipse id="Ellipse_8" data-name="Ellipse 8" cx="2.293" cy="2.293" rx="2.293" ry="2.293" transform="translate(0 68.161)" fill="#020203"/>
        <ellipse id="Ellipse_9" data-name="Ellipse 9" cx="2.293" cy="2.293" rx="2.293" ry="2.293" transform="translate(0 85.201)" fill="#020203"/>
      </g>
    </g>
    <path id="Path_20" data-name="Path 20" d="M539.566,588.093H268.1L403.8,353Zm-268.8-1.549h266.2l-133.1-230.507Z" transform="translate(-108.735 155.258)" fill="#020203"/>
    <g id="Group_13" data-name="Group 13" transform="translate(387.58 706.296)">
      <path id="Path_21" data-name="Path 21" d="M657.344,672.6,636.4,708.911h41.888Z" transform="translate(-636.4 -672.6)" fill="#020203"/>
    </g>
    <g id="Group_14" data-name="Group 14" transform="translate(162.934 474.38)">
      <rect id="Rectangle_43" data-name="Rectangle 43" width="1.549" height="309.512" transform="translate(0 0.776) rotate(-30.08)"/>
    </g>
    <g id="Group_15" data-name="Group 15" transform="translate(280.363 606.979)">
      <rect id="Rectangle_44" data-name="Rectangle 44" width="99.329" height="1.549" transform="translate(0 70.235) rotate(-45)" fill="#020203"/>
    </g>
    <g id="Group_16" data-name="Group 16" transform="translate(291.932 625.901)">
      <rect id="Rectangle_45" data-name="Rectangle 45" width="98.771" height="1.549" transform="translate(0 69.841) rotate(-45)" fill="#020203"/>
    </g>
    <g id="Group_17" data-name="Group 17" transform="translate(302.011 644.832)">
      <rect id="Rectangle_46" data-name="Rectangle 46" width="99.329" height="1.549" transform="translate(0 70.235) rotate(-45)" fill="#020203"/>
    </g>
    <g id="Group_19" data-name="Group 19" transform="translate(82.142 467.269)">
      <path id="Path_22" data-name="Path 22" d="M220.2,309l-63.575,63.575a44.991,44.991,0,0,1,0-63.575A44.879,44.879,0,0,0,220.2,309Z" transform="translate(-143.475 -295.275)" fill="#020203"/>
      <g id="Group_18" data-name="Group 18" transform="translate(12.346)">
        <path id="Path_23" data-name="Path 23" d="M228.275,300.927a44.991,44.991,0,0,1-63.575,0A44.991,44.991,0,0,1,228.275,300.927Z" transform="translate(-163.894 -287.202)" fill="#cbc9c9"/>
        <path id="Path_24" data-name="Path 24" d="M195.993,314.331a45.372,45.372,0,0,1-32.159-13.322l-.434-.434.434-.434a45.627,45.627,0,0,1,64.381,0l.434.434-.434.434A45.619,45.619,0,0,1,195.993,314.331Zm-30.982-13.756a44.447,44.447,0,0,0,61.9,0A44.447,44.447,0,0,0,165.011,300.575Z" transform="translate(-163.4 -286.85)" fill="#1d1d1c"/>
      </g>
    </g>
    <g id="Group_24" data-name="Group 24" transform="translate(193.755 442.452)">
      <path id="Path_28" data-name="Path 28" d="M323.6,248.163l69.276,122.132,1.549-.867L324.839,246.8Z" transform="translate(-323.6 -246.8)" fill="#1d1d1c"/>
    </g>
    <g id="Group_25" data-name="Group 25" transform="translate(40.784 443.218)">
      <rect id="Rectangle_47" data-name="Rectangle 47" width="218.362" height="1.735" transform="translate(0 155.256) rotate(-45.316)" fill="#1d1d1c"/>
    </g>
    <path id="Path_29" data-name="Path 29" d="M382.994,353.908l-133.1,233.606L216,588.691,359.757,350.5Z" transform="translate(-88.919 156.209)" opacity="0.46" fill="url(#linear-gradient)"/>
    <path id="Path_30" data-name="Path 30" d="M55.6,461.8V628.732s41.33-24.166,41.33-83.466C96.93,500.342,73.941,476.548,55.6,461.8Z" transform="translate(-27.909 113.875)" fill="#020203"/>
    <rect id="Rectangle_48" data-name="Rectangle 48" width="14.995" height="14.995" transform="translate(574.701 667.323)" fill="#020203"/>
    <rect id="Rectangle_49" data-name="Rectangle 49" width="10.224" height="10.224" transform="translate(697.574 697.323)" fill="#020203"/>
    <rect id="Rectangle_50" data-name="Rectangle 50" width="21.44" height="21.44" transform="translate(640.769 526.594)" fill="#020203"/>
    <rect id="Rectangle_63" data-name="Rectangle 63" width="21.44" height="21.44" transform="matrix(0.309, -0.951, 0.951, 0.309, 1055.871, 538.65)" fill="#020203"/>
    <path id="Path_31" data-name="Path 31" d="M700.829,199.6H670.9v29.991h29.929Zm-7.436,22.493h-15v-15h15Z" transform="translate(-203.943 390.605)" fill="#020203"/>
    <rect id="Rectangle_51" data-name="Rectangle 51" width="14.995" height="14.995" transform="translate(496.455 597.703)" fill="#fff"/>
    <g id="Group_72" data-name="Group 72" transform="translate(363.981 107.935)">
      <g id="Group_28" data-name="Group 28" transform="translate(429.715 590.219)">
        <g id="Group_27" data-name="Group 27">
          <path id="Path_32" data-name="Path 32" d="M461.525,317.726l-10.156-8.061-10.2,8.061-10.2-8.061-10.2,8.061-10.156-8.015-9.154,7.833L401,317l9.564-8.2,10.2,8.061,10.2-8.061,10.2,8.061,10.2-8.061,10.156,8.061,10.2-8.061,10.2,8.061,10.2-8.061,10.156,8.061,10.2-8.061,10.429,8.2-.455.547-9.974-7.879-10.2,8.061-10.156-8.061-10.2,8.061-10.2-8.061Z" transform="translate(-401 -308.8)" fill="#020203"/>
        </g>
      </g>
      <g id="Group_30" data-name="Group 30" transform="translate(429.715 571.774)">
        <g id="Group_29" data-name="Group 29">
          <path id="Path_33" data-name="Path 33" d="M461.525,277.181l-10.156-8.015-10.2,8.015-10.2-8.015-10.2,8.015-10.156-8.015-9.154,7.879L401,276.5l9.609-8.2,10.156,8.061,10.2-8.061,10.2,8.061,10.2-8.061,10.156,8.061,10.2-8.061,10.2,8.061,10.2-8.061,10.156,8.061,10.2-8.061,10.429,8.2-.455.547-9.974-7.879-10.2,8.015-10.156-8.015-10.2,8.015-10.2-8.015Z" transform="translate(-401 -268.3)" fill="#020203"/>
        </g>
      </g>
    </g>
    <g id="Group_40" data-name="Group 40" transform="translate(807.117 662.585)">
      <path id="Path_41" data-name="Path 41" d="M230.183,0,184.8,78.618h90.766Z" transform="translate(-184.8)" fill="#292929"/>
    </g>
    <g id="Group_33" data-name="Group 33" transform="translate(1288.421 315.046)">
      <path id="Path_34" data-name="Path 34" d="M51.8,252.5c-28.6,0-51.8,21.934-51.8,48.96s23.207,48.885,51.8,48.885Z" transform="translate(0 -252.5)" fill="#020203"/>
    </g>
    <g id="Group_43" data-name="Group 43" transform="translate(1232.613 553.396)">
      <path id="Path_44" data-name="Path 44" d="M35.5,144.548,56.588,156.7V132.4Z" transform="translate(-34.886 -131.854)" fill="#020203"/>
      <path id="Path_45" data-name="Path 45" d="M56.575,156.987,34.6,144.294,56.575,131.6ZM35.828,144.294l20.132,11.67V132.692Z" transform="translate(-34.6 -131.6)" fill="#020203"/>
    </g>
    <g id="Group_44" data-name="Group 44" transform="translate(1211.389 541.248)">
      <path id="Path_46" data-name="Path 46" d="M4.4,126.748l21.02,12.216V114.6Z" transform="translate(-3.786 -114.054)" fill="#020203"/>
      <path id="Path_47" data-name="Path 47" d="M25.475,139.187,3.5,126.494,25.475,113.8ZM4.66,126.494l20.132,11.67V114.892Z" transform="translate(-3.5 -113.8)" fill="#020203"/>
    </g>
    <g id="Group_45" data-name="Group 45" transform="translate(1247.217 526.098)">
      <path id="Path_48" data-name="Path 48" d="M65.986,97.828,56.5,92.3v10.987Z" transform="translate(-56.159 -91.822)" fill="#020203"/>
      <path id="Path_49" data-name="Path 49" d="M56,103.611V91.6l10.442,6.006Zm.614-10.987v9.964l8.6-4.982Z" transform="translate(-56 -91.6)" fill="#020203"/>
    </g>
    <g id="Group_57" data-name="Group 57" transform="translate(-1024 20.532)">
      <g id="Group_41" data-name="Group 41" transform="translate(1542.176 614.787)">
        <path id="Path_42" data-name="Path 42" d="M183.583,532.18H61.8L122.691,426.7Zm-120.577-.7H182.377L122.691,428.1Z" transform="translate(-61.8 -426.7)" fill="#020203"/>
      </g>
      <g id="Group_46" data-name="Group 46" transform="translate(1596.468 659.092)">
        <rect id="Rectangle_53" data-name="Rectangle 53" width="44.55" height="0.7" transform="translate(0 31.501) rotate(-45)" fill="#020203"/>
      </g>
      <g id="Group_47" data-name="Group 47" transform="translate(1601.657 667.582)">
        <rect id="Rectangle_54" data-name="Rectangle 54" width="44.317" height="0.7" transform="translate(0 31.336) rotate(-45)" fill="#020203"/>
      </g>
    </g>
    <g id="Group_71" data-name="Group 71" transform="translate(997.01 575.351)">
      <g id="Group_58" data-name="Group 58" transform="translate(262.267 57.18)">
        <path id="Path_53" data-name="Path 53" d="M516.714,111.3c-7.963,7.963-8.323,20.5-.822,28s20.036,7.141,28-.822Z" transform="translate(-510.496 -111.3)" fill="#020203"/>
      </g>
      <g id="Group_62" data-name="Group 62" transform="translate(0 21.937)">
        <g id="Group_59" data-name="Group 59">
          <path id="Path_54" data-name="Path 54" d="M184.351,43.4,1.2,149.335l60.417,35.14,1.9-1.079c.565-51.734,40.278-93.5,89.238-93.5a85.045,85.045,0,0,1,47.625,14.59L244.974,78.8Z" transform="translate(-0.584 -43.04)" fill="#020203"/>
          <path id="Path_55" data-name="Path 55" d="M245.007,78.406,199.8,104.453l-.154-.1a84.928,84.928,0,0,0-47.419-14.539c-23.581,0-45.775,9.658-62.575,27.229a96.537,96.537,0,0,0-26.407,65.914v.154l-2.209,1.284L0,148.995l.462-.257L183.768,42.7ZM199.8,103.785l43.977-25.328L183.768,43.419,1.233,148.995l59.8,34.781,1.593-.925A97.216,97.216,0,0,1,89.187,116.68c16.9-17.673,39.25-27.434,62.986-27.434A85.586,85.586,0,0,1,199.8,103.785Z" transform="translate(0 -42.7)" fill="#020203"/>
        </g>
        <g id="Group_60" data-name="Group 60" transform="translate(62.575 61.033)">
          <path id="Path_56" data-name="Path 56" d="M301,241.9v.308H121.8v-1.593l.154-.1L259.022,161.5l.154.1C285.378,179.173,301,209.176,301,241.9Zm-178.528-.308H300.379c-.1-32.366-15.567-61.958-41.357-79.323L122.468,240.977v.616Z" transform="translate(-121.8 -161.5)" fill="#020203"/>
        </g>
        <g id="Group_61" data-name="Group 61" transform="translate(62.626 46.546)">
          <path id="Path_57" data-name="Path 57" d="M122.5,227.4,259.363,148.49a85.045,85.045,0,0,0-47.625-14.59C162.778,133.9,123.065,175.668,122.5,227.4Z" transform="translate(-122.192 -133.592)" fill="#cbc9c9"/>
          <path id="Path_58" data-name="Path 58" d="M259.687,148.2l-.411.257L121.9,227.624v-.565a97.024,97.024,0,0,1,26.561-66.325c16.9-17.673,39.25-27.434,62.986-27.434a85.372,85.372,0,0,1,47.779,14.642ZM122.516,226.545l135.989-78.4A85.182,85.182,0,0,0,211.5,133.916c-23.581,0-45.775,9.658-62.575,27.229A96.564,96.564,0,0,0,122.516,226.545Z" transform="translate(-121.9 -133.3)" fill="#020203"/>
        </g>
      </g>
      <g id="Group_63" data-name="Group 63" transform="translate(199.386)">
        <path id="Path_59" data-name="Path 59" d="M532.1,0V166.249l-144-83.125Zm-1.284,164.091V2.158l-140.2,80.967Z" transform="translate(-388.1)" fill="#020203"/>
      </g>
      <g id="Group_64" data-name="Group 64" transform="translate(320.631 1.079)">
        <path id="Path_60" data-name="Path 60" d="M624.1,14.892l22.143,12.792V2.1Z" transform="translate(-624.1 -2.1)" fill="#020203"/>
      </g>
      <g id="Group_65" data-name="Group 65" transform="translate(178.952 68.143)">
        <rect id="Rectangle_56" data-name="Rectangle 56" width="188.905" height="1.233" transform="translate(0 94.679) rotate(-30.08)"/>
      </g>
      <g id="Group_66" data-name="Group 66" transform="translate(259.871 48.465)">
        <rect id="Rectangle_57" data-name="Rectangle 57" width="1.233" height="60.622" transform="translate(0 0.872) rotate(-45)" fill="#020203"/>
      </g>
      <g id="Group_67" data-name="Group 67" transform="translate(271.4 41.649)">
        <rect id="Rectangle_58" data-name="Rectangle 58" width="1.233" height="60.314" transform="translate(0 0.872) rotate(-45)" fill="#020203"/>
      </g>
      <g id="Group_68" data-name="Group 68" transform="translate(282.934 35.278)">
        <rect id="Rectangle_59" data-name="Rectangle 59" width="1.233" height="60.622" transform="translate(0 0.872) rotate(-45)" fill="#020203"/>
      </g>
      <g id="Group_69" data-name="Group 69" transform="translate(309.189 108.682)">
        <circle id="Ellipse_11" data-name="Ellipse 11" cx="7.038" cy="7.038" r="7.038" transform="translate(0 8.359) rotate(-36.428)" fill="#020203"/>
        <path id="Path_61" data-name="Path 61" d="M610.745,217.392a7.262,7.262,0,1,1-3.031,9.813A7.234,7.234,0,0,1,610.745,217.392Zm6.576,12.433a6.8,6.8,0,1,0-9.2-2.826A6.832,6.832,0,0,0,617.321,229.825Z" transform="translate(-604.286 -213.974)" fill="#020203"/>
      </g>
      <g id="Group_70" data-name="Group 70" transform="translate(275.302 96.862)">
        <circle id="Ellipse_12" data-name="Ellipse 12" cx="5.035" cy="5.035" r="5.035" transform="translate(0 7.12) rotate(-45)" fill="#020203"/>
        <path id="Path_62" data-name="Path 62" d="M542.244,192.713a5.286,5.286,0,1,1-2.209,7.141A5.272,5.272,0,0,1,542.244,192.713Zm4.726,8.888a4.826,4.826,0,1,0-6.525-2A4.826,4.826,0,0,0,546.97,201.6Z" transform="translate(-537.604 -190.267)" fill="#020203"/>
      </g>
    </g>
    <g id="Group_42" data-name="Group 42" transform="translate(920.611 566.503)">
      <path id="Path_43" data-name="Path 43" d="M165.9,94.4l25.8-44.7H140.1Z" transform="translate(-140.1 -49.7)" fill="#818282"/>
    </g>
    <g id="Group_23" data-name="Group 23" transform="translate(737.203 572.604)">
      <g id="Group_22" data-name="Group 22" transform="translate(0)">
        <g id="Group_20" data-name="Group 20" transform="translate(5.43)">
          <path id="Path_25" data-name="Path 25" d="M50.331,0h.27l1.468,75.754h-.9l-.09-.15L18.1,18.452l.09-.15A38.437,38.437,0,0,1,50.331,0ZM51.5,75.185,50.061.6a37.793,37.793,0,0,0-31.3,17.883l32.74,56.7Z" transform="translate(-18.1)" fill="#020203"/>
        </g>
        <g id="Group_21" data-name="Group 21" transform="translate(0 17.913)">
          <path id="Path_26" data-name="Path 26" d="M39.283,118.633,6.364,61.6A37.057,37.057,0,0,0,.882,81.759C1.3,102.4,18.435,118.783,39.283,118.633Z" transform="translate(-0.604 -61.061)" fill="#cbc9c9"/>
          <path id="Path_27" data-name="Path 27" d="M38.173,117.072,5.732,60.908a36.9,36.9,0,0,0,6.26,45.59A37.62,37.62,0,0,0,38.173,117.072ZM5.762,59.8l.24.389,33.159,57.452h-.479a38.383,38.383,0,0,1-27.049-10.694A37.459,37.459,0,0,1,5.493,60.219Z" transform="translate(0.027 -59.8)" fill="#020203"/>
        </g>
      </g>
      <circle id="Ellipse_10" data-name="Ellipse 10" cx="6.8" cy="6.8" r="6.8" transform="translate(32.359 34.298)" fill="#020203"/>
    </g>
    <rect id="Rectangle_64" data-name="Rectangle 64" width="12.44" height="12.44" transform="matrix(0.309, -0.951, 0.951, 0.309, 395.931, 509.806)" fill="#020203"/>
  </g>
</svg>
