<svg xmlns="http://www.w3.org/2000/svg" xmlns:xlink="http://www.w3.org/1999/xlink" width="177.733" height="315.93" viewBox="0 0 177.733 315.93">
  <defs>
    <clipPath id="clip-path">
      <rect width="177.733" height="315.93" fill="none"/>
    </clipPath>
  </defs>
  <g id="Repeat_Grid_1" data-name="Repeat Grid 1" clip-path="url(#clip-path)">
    <g id="Group_265" data-name="Group 265" transform="translate(2 2)">
      <path id="Path_206" data-name="Path 206" d="M105.128,171.759h0L91.8,311.93H80.944L68.111,171.759c-16.287-3.949-31.588-11.845-43.433-24.184A85.826,85.826,0,0,1,0,87.36c0-24.678,9.871-46.888,25.172-61.2A83.141,83.141,0,0,1,86.373,0c25.172,0,46.888,9.378,61.695,26.159,15.794,14.807,25.665,37.017,25.665,61.2,0,23.691-9.378,45.407-25.665,60.214-11.352,12.339-25.665,20.236-42.94,24.184Zm35.536-138.2h0c-14.313-14.313-32.575-22.7-54.292-22.7-20.236,0-39.978,8.391-52.811,22.7-13.82,13.82-22.7,32.081-22.7,53.8a74.291,74.291,0,0,0,22.7,52.811c12.833,14.313,32.575,22.7,52.811,22.7,21.717,0,39.978-8.391,54.292-22.7a74.291,74.291,0,0,0,22.7-52.811c0-21.717-8.884-39.978-22.7-53.8Zm-61.2,139.677,6.91,79.463,7.4-79.463a37.356,37.356,0,0,1-7.4.494,30.352,30.352,0,0,1-6.91-.494Z" fill="#080d83" stroke="#080d83" stroke-width="4" fill-rule="evenodd"/>
      <path id="Path_207" data-name="Path 207" d="M56.051,5.3h0c2.468.494,3.455,1.481,3.455,3.948A3.652,3.652,0,0,1,56.051,12.7,47.622,47.622,0,0,0,25.944,23.562c-8.391,6.91-12.833,18.262-14.313,31.094,0,2.468-1.974,3.455-4.442,3.455-.987,0-2.961-2.468-1.974-4.936.987-13.82,5.923-25.665,15.3-34.549A52.73,52.73,0,0,1,56.051,5.3Z" transform="translate(19.463 20.859)" fill="#080d83" stroke="#080d83" stroke-width="4" fill-rule="evenodd"/>
    </g>
  </g>
</svg>
