<svg width="24" height="24" xmlns="http://www.w3.org/2000/svg" fill-rule="evenodd" clip-rule="evenodd"><path d="M8 14c0-.833 0-.849 2.46-6.72l1.543-3.688c.731 1.744 1.337 3.169 1.836 4.344 2.059 4.852 2.161 5.135 2.161 6.064 0 1.961-1.4 3.619-3.332 3.944-.613.104-.834.084-1.336 0-1.931-.324-3.332-1.983-3.332-3.944zm10 0c0-1.841-.419-2.215-5.075-13.387-.016 0-.228-.613-.925-.613-.701 0-.908.615-.924.615-5.054 12.159-5.076 11.823-5.076 13.385 0 2.971 2.164 5.44 5 5.917v4.083h2v-4.083c2.836-.477 5-2.946 5-5.917z"/></svg>